<svg xmlns="http://www.w3.org/2000/svg" width="1280" height="900" viewBox="0 0 1280 900" role="img" aria-labelledby="title desc">
  <title id="title">Bonnie Blue Hero Placeholder</title>
  <desc id="desc">Abstract wave composition in modern blue gradients.</desc>
  <defs>
    <linearGradient id="bg" x1="0" y1="0" x2="1" y2="1">
      <stop offset="0%" stop-color="#e7efff"/>
      <stop offset="100%" stop-color="#adc8ff"/>
    </linearGradient>
    <linearGradient id="waveA" x1="0" y1="0" x2="1" y2="1">
      <stop offset="0%" stop-color="#2f68ff" stop-opacity="0.88"/>
      <stop offset="100%" stop-color="#87b8ff" stop-opacity="0.9"/>
    </linearGradient>
    <linearGradient id="waveB" x1="1" y1="0" x2="0" y2="1">
      <stop offset="0%" stop-color="#0f3eb8" stop-opacity="0.7"/>
      <stop offset="100%" stop-color="#588dff" stop-opacity="0.72"/>
    </linearGradient>
  </defs>
  <rect width="1280" height="900" fill="url(#bg)"/>
  <path d="M0 610c132-102 293-77 436-34 145 43 277 103 417 87 138-16 252-92 427-184v421H0z" fill="url(#waveA)"/>
  <path d="M0 704c181-68 354-40 491 18s277 147 443 133c131-11 229-90 346-175v220H0z" fill="url(#waveB)"/>
  <circle cx="947" cy="228" r="152" fill="#fff" fill-opacity="0.36"/>
  <circle cx="1020" cy="286" r="83" fill="#fff" fill-opacity="0.52"/>
</svg>
